<?xml version="1.0" encoding="utf-8"?>
<!-- Generator: Adobe Illustrator 27.0.0, SVG Export Plug-In . SVG Version: 6.00 Build 0)  -->
<svg version="1.1" xmlns="http://www.w3.org/2000/svg" xmlns:xlink="http://www.w3.org/1999/xlink" x="0px" y="0px"
	 viewBox="0 0 725.1 500" style="enable-background:new 0 0 725.1 500;" xml:space="preserve">
<style type="text/css">
	.st0{fill:#4C40E6;}
	.st1{fill:url(#SVGID_1_);}
	.st2{fill:url(#SVGID_00000050660687920675931730000003256790744532412847_);}
	.st3{fill:url(#SVGID_00000047029111805391518850000002172842467043173532_);}
	.st4{fill:url(#SVGID_00000156578582494135754990000009608508458312934550_);}
	.st5{fill:url(#SVGID_00000073679012138970936450000001992437648131497103_);}
	.st6{fill:url(#SVGID_00000018225863052939337880000018344570233717943953_);}
	.st7{fill:url(#SVGID_00000016034823623743542040000006464168107791535243_);}
	.st8{clip-path:url(#SVGID_00000032609116509454938270000014742902562238388661_);}
	.st9{fill:#F0F0F0;}
	.st10{fill:#FFFFFF;}
	.st11{font-family:'OpenSans-ExtraBold';}
	.st12{font-size:7.612px;}
	.st13{fill:#B1B1B1;}
	.st14{font-family:'OpenSans-SemiBold';}
	.st15{font-size:7.1362px;}
	.st16{clip-path:url(#SVGID_00000025405566640097100010000017699420839832560527_);}
	.st17{fill:none;stroke:#B1B1B1;stroke-width:0.5;}
	.st18{font-size:8.5635px;}
	.st19{font-family:'OpenSans-Regular';}
	.st20{font-size:4.7575px;}
	.st21{fill:#E64040;}
	.st22{font-size:8.0877px;}
	.st23{font-size:9.515px;}
	.st24{fill:none;}
	.st25{font-size:32.8267px;}
	.st26{fill:#46E640;}
	.st27{clip-path:url(#SVGID_00000043416426895706582730000002552818223341613184_);}
	.st28{font-family:'OpenSans-Bold';}
	.st29{font-size:13.321px;}
	.st30{fill:none;stroke:#FFFFFF;}
	.st31{fill:url(#SVGID_00000119090176002015106010000012700621543522291853_);}
	.st32{fill:url(#SVGID_00000094616285748233496570000007934063832391636865_);}
	.st33{fill:url(#SVGID_00000172425181986021195120000006685594515426888615_);}
	.st34{fill:url(#SVGID_00000106848780760388195490000017906220447982371739_);}
	.st35{fill:url(#SVGID_00000083805922979916130010000001264574403537699002_);}
	.st36{fill:url(#SVGID_00000133504251719763737050000014564140043084148886_);}
	.st37{fill:url(#SVGID_00000014604778228064702360000011042330658254488749_);}
	.st38{fill:url(#SVGID_00000088096471406314796050000014950155272554504582_);}
	.st39{opacity:0.5;fill:url(#SVGID_00000155146328419954379410000013773223591127323325_);}
	.st40{fill:#333333;}
	.st41{font-family:'Aileron-Bold';}
	.st42{font-size:5.7975px;}
	.st43{fill:#FFFFFF;stroke:#F0F0F0;stroke-miterlimit:10;}
	.st44{clip-path:url(#SVGID_00000116956555229092740090000013784287077274355129_);}
</style>
<g id="BACKGROUND">
	<rect class="st0" width="725.1" height="500"/>
</g>
<g id="OBJECTS">
	<g>
		
			<radialGradient id="SVGID_1_" cx="364.5062" cy="39.9479" r="78.0018" gradientTransform="matrix(2.2154 0 0 0.1022 -444.9628 440.4417)" gradientUnits="userSpaceOnUse">
			<stop  offset="0" style="stop-color:#2D7779"/>
			<stop  offset="0.1196" style="stop-color:#3D8183;stop-opacity:0.8804"/>
			<stop  offset="0.3521" style="stop-color:#669A9C;stop-opacity:0.6479"/>
			<stop  offset="0.6743" style="stop-color:#A8C3C5;stop-opacity:0.3257"/>
			<stop  offset="1" style="stop-color:#F1F1F2;stop-opacity:0"/>
		</radialGradient>
		<ellipse class="st1" cx="362.6" cy="444.5" rx="172.8" ry="8"/>
		<g>
			
				<linearGradient id="SVGID_00000120518801456860087390000002343938743196225179_" gradientUnits="userSpaceOnUse" x1="459.7946" y1="137.7652" x2="459.7946" y2="185.9278">
				<stop  offset="0" style="stop-color:#231F20"/>
				<stop  offset="1.795178e-02" style="stop-color:#272324"/>
				<stop  offset="0.3145" style="stop-color:#676769"/>
				<stop  offset="0.4531" style="stop-color:#808184"/>
				<stop  offset="0.5592" style="stop-color:#747477"/>
				<stop  offset="0.7571" style="stop-color:#535153"/>
				<stop  offset="1" style="stop-color:#231F20"/>
			</linearGradient>
			<path style="fill:url(#SVGID_00000120518801456860087390000002343938743196225179_);" d="M457.7,185.7h2.1c1.1,0,2-0.9,2-2v-44.2
				c0-1.1-0.9-2-2-2h-2.1V185.7z"/>
			
				<linearGradient id="SVGID_00000075124928434130791330000001008740001212449700_" gradientUnits="userSpaceOnUse" x1="265.3339" y1="99.9365" x2="265.3339" y2="116.1357">
				<stop  offset="0" style="stop-color:#231F20"/>
				<stop  offset="1.795178e-02" style="stop-color:#272324"/>
				<stop  offset="0.3145" style="stop-color:#676769"/>
				<stop  offset="0.4531" style="stop-color:#808184"/>
				<stop  offset="0.5592" style="stop-color:#747477"/>
				<stop  offset="0.7571" style="stop-color:#535153"/>
				<stop  offset="1" style="stop-color:#231F20"/>
			</linearGradient>
			<path style="fill:url(#SVGID_00000075124928434130791330000001008740001212449700_);" d="M267.4,116.2h-2.1c-1.1,0-2-0.9-2-2V102
				c0-1.1,0.9-2,2-2h2.1V116.2z"/>
			
				<linearGradient id="SVGID_00000108276717308589772840000004486288334226246321_" gradientUnits="userSpaceOnUse" x1="265.3339" y1="127.4003" x2="265.3339" y2="157.5645">
				<stop  offset="0" style="stop-color:#231F20"/>
				<stop  offset="1.795178e-02" style="stop-color:#272324"/>
				<stop  offset="0.3145" style="stop-color:#676769"/>
				<stop  offset="0.4531" style="stop-color:#808184"/>
				<stop  offset="0.5592" style="stop-color:#747477"/>
				<stop  offset="0.7571" style="stop-color:#535153"/>
				<stop  offset="1" style="stop-color:#231F20"/>
			</linearGradient>
			<path style="fill:url(#SVGID_00000108276717308589772840000004486288334226246321_);" d="M267.4,157.6h-2.1c-1.1,0-2-0.9-2-2
				v-26.5c0-1.1,0.9-2,2-2h2.1V157.6z"/>
			
				<linearGradient id="SVGID_00000177451412593955473850000006632284174448278187_" gradientUnits="userSpaceOnUse" x1="265.3339" y1="164.6394" x2="265.3339" y2="195.4549">
				<stop  offset="0" style="stop-color:#231F20"/>
				<stop  offset="1.795178e-02" style="stop-color:#272324"/>
				<stop  offset="0.3145" style="stop-color:#676769"/>
				<stop  offset="0.4531" style="stop-color:#808184"/>
				<stop  offset="0.5592" style="stop-color:#747477"/>
				<stop  offset="0.7571" style="stop-color:#535153"/>
				<stop  offset="1" style="stop-color:#231F20"/>
			</linearGradient>
			<path style="fill:url(#SVGID_00000177451412593955473850000006632284174448278187_);" d="M267.4,195.1h-2.1c-1.1,0-2-0.9-2-2
				v-26.5c0-1.1,0.9-2,2-2h2.1V195.1z"/>
			
				<linearGradient id="SVGID_00000143580460126752349300000010812129579068683155_" gradientUnits="userSpaceOnUse" x1="265.6025" y1="245.4409" x2="459.7945" y2="245.4409">
				<stop  offset="0" style="stop-color:#231F20"/>
				<stop  offset="1.795178e-02" style="stop-color:#272324"/>
				<stop  offset="0.3145" style="stop-color:#676769"/>
				<stop  offset="0.4531" style="stop-color:#808184"/>
				<stop  offset="0.5592" style="stop-color:#747477"/>
				<stop  offset="0.7571" style="stop-color:#535153"/>
				<stop  offset="1" style="stop-color:#231F20"/>
			</linearGradient>
			<path style="fill:url(#SVGID_00000143580460126752349300000010812129579068683155_);" d="M431.6,443.4H293.8
				c-15.6,0-28.2-12.6-28.2-28.2V75.7c0-15.6,12.6-28.2,28.2-28.2h137.8c15.6,0,28.2,12.6,28.2,28.2v339.4
				C459.8,430.7,447.2,443.4,431.6,443.4z"/>
			<path d="M269.3,415.4V75.5c0-13.4,10.9-24.3,24.3-24.3h138.2c13.4,0,24.3,10.9,24.3,24.3v339.9c0,13.4-10.9,24.3-24.3,24.3H293.6
				C280.2,439.7,269.3,428.8,269.3,415.4z"/>
			
				<linearGradient id="SVGID_00000071539339124203033710000016290968625447800241_" gradientUnits="userSpaceOnUse" x1="362.6984" y1="436.8838" x2="362.6984" y2="53.1546">
				<stop  offset="0" style="stop-color:#4D4D4D"/>
				<stop  offset="1" style="stop-color:#000000"/>
			</linearGradient>
			<path style="fill:url(#SVGID_00000071539339124203033710000016290968625447800241_);" d="M273.1,415.6V75.3
				c0-11.2,9.1-20.3,20.3-20.3H432c11.2,0,20.3,9.1,20.3,20.3v340.3c0,11.2-9.1,20.3-20.3,20.3H293.4
				C282.2,435.9,273.1,426.8,273.1,415.6z"/>
			<g>
				<g>
					<defs>
						<rect id="SVGID_00000009564429040804414900000011082320575779477946_" x="274.6" y="55.5" width="177.8" height="392.2"/>
					</defs>
					<clipPath id="SVGID_00000164501716783907405870000017003766711311840647_">
						<use xlink:href="#SVGID_00000009564429040804414900000011082320575779477946_"  style="overflow:visible;"/>
					</clipPath>
					
						<g id="Landing_Page_Activity_00000042736187850616403870000006841424341959815309_" style="clip-path:url(#SVGID_00000164501716783907405870000017003766711311840647_);">
						<path class="st9" d="M296,55.5h135c11.8,0,21.4,9.2,21.4,20.4v334.8H274.6V75.9C274.6,64.6,284.1,55.5,296,55.5z"/>
						<g transform="matrix(1, 0, 0, 1, 0, 0)">
							<path id="Rectangle_38-2_00000175323157924928598740000003031034198010821800_" class="st10" d="M274.6,410.9v-166
								c0-10.5,10.2-19,22.8-19h132.4c12.6,0,22.8,8.5,22.8,19v166l0,0"/>
						</g>
						<g transform="matrix(1, 0, 0, 1, 0, 0)">
							<path id="Dashboard_Background-2_00000114061732001957529260000013988250924639633299_" class="st10" d="M296.1,56.5h134.7
								c11.9,0,21.5,10.1,21.5,22.5v106.4c0,13.1-10.2,23.8-22.8,23.8H297.4c-12.6,0-22.8-10.7-22.8-23.8V79
								C274.6,66.6,284.2,56.5,296.1,56.5z"/>
						</g>
						<text transform="matrix(0.9582 0 0 1 287.6544 99.743)" class="st0 st11 st12">DASHBOARD</text>
						<g id="Group_9_00000101093945052807451070000003179587074345755037_" transform="translate(-4 -9)">
							<text transform="matrix(0.9582 0 0 1 292.2403 257.6209)" class="st13 st14 st15">TODAY</text>
						</g>
						<g id="Group_13_00000142158365983457784460000007798076214706099842_" transform="translate(-4 112)">
							<text transform="matrix(0.9582 0 0 1 292.2403 194.1868)" class="st13 st14 st15">YESTERDAY</text>
						</g>
						<g>
							<defs>
								<rect id="SVGID_00000100364981729380253150000007685613638541233537_" x="273.2" y="254.8" width="180.5" height="33.3"/>
							</defs>
							<clipPath id="SVGID_00000044137866696671954510000009381226165818966453_">
								<use xlink:href="#SVGID_00000100364981729380253150000007685613638541233537_"  style="overflow:visible;"/>
							</clipPath>
							
								<g id="Repeat_Grid_2_00000093148666344922834030000016482022501104192643_" transform="translate(-3 419)" style="clip-path:url(#SVGID_00000044137866696671954510000009381226165818966453_);">
								<g id="Group_12_00000083076935277583870570000003775786242052425864_" transform="translate(3 -477)">
									<g id="Rectangle_39_00000072254314511882232620000004745302466638526604_" transform="translate(-3 477)">
										<rect x="276.2" y="-164.2" class="st10" width="180.5" height="33.3"/>
										<rect x="276.3" y="-164.1" class="st17" width="180.3" height="33.1"/>
									</g>
									<g id="Group_11_00000132059786781205388270000011779432409115322539_" transform="translate(9 -1)">
										<text transform="matrix(0.9582 0 0 1 279.2403 330.9339)" class="st0 st11 st18">STARBUCKS</text>
										<g id="Group_10_00000012465377966005141320000002984370001803164593_" transform="translate(-15 114)">
											<text transform="matrix(0.9582 0 0 1 294.2403 224.0687)" class="st13 st19 st20">FOOD &amp; DRINKS</text>
										</g>
									</g>
									<g id="Group_624_00000090989849009185564190000004201606339378722983_" transform="translate(24 -61)">
										<text transform="matrix(0.9582 0 0 1 400.9933 394.263)" class="st21 st14 st22">$14</text>
										<text transform="matrix(0.9582 0 0 1 396.4347 394.263)" class="st21 st14 st23">-</text>
									</g>
								</g>
							</g>
						</g>
						<g id="Rectangle_39-2_00000154395189735936972800000014534657566324333992_" transform="translate(-3 539)">
							<rect x="276.2" y="-227.1" class="st10" width="180.5" height="33.3"/>
							<rect x="276.3" y="-227" class="st17" width="180.3" height="33.1"/>
						</g>
						<g id="Group_11-2_00000169530130221246265440000016658604872777058998_" transform="translate(9 61)">
							<text transform="matrix(0.9582 0 0 1 279.2403 268.0237)" class="st0 st11 st18">McDonald’s</text>
							<g id="Group_10-2_00000152258045557221522860000003146027279639512476_" transform="translate(-15 114)">
								<text transform="matrix(0.9582 0 0 1 294.2403 161.6351)" class="st13 st19 st20">FOOD &amp; DRINKS</text>
							</g>
						</g>
						<g id="Rectangle_39-3_00000164495383725784107530000003566036903244490908_" transform="translate(-3 608)">
							<rect x="276.2" y="-263.3" class="st10" width="180.5" height="33.3"/>
							<rect x="276.3" y="-263.2" class="st17" width="180.3" height="33.1"/>
						</g>
						<g id="Group_11-3_00000128457720356723333250000015476947841972017800_" transform="translate(9 130)">
							<text transform="matrix(0.9582 0 0 1 279.2403 231.8499)" class="st0 st11 st18">ZARA</text>
							<g id="Group_10-3_00000110440465505592571140000018061064161778156433_" transform="translate(-15 114)">
								<text transform="matrix(0.9582 0 0 1 294.2403 125.4613)" class="st13 st19 st20">SHOPPING &amp; ENTERTAINMENT</text>
							</g>
						</g>
						<g id="Rectangle_39-4_00000042008331211017698740000014828611573593156539_" transform="translate(-3 677)">
							<rect x="276.2" y="-299.5" class="st10" width="180.5" height="33.3"/>
							<rect x="276.3" y="-299.3" class="st17" width="180.3" height="33.1"/>
						</g>
						<g id="Group_11-4_00000007426537679610356180000016691241165328067972_" transform="translate(10 204)">
							<text transform="matrix(0.9582 0 0 1 278.6959 193.056)" class="st0 st11 st18">Coding Gig</text>
						</g>
						<path id="Rectangle_275_00000044881581823834950400000014900438639769039280_" class="st0" d="M300.5,119.7h98.9
							c6.5,0,11.9,5.5,11.9,12.4l0,0c0,6.8-5.3,12.4-11.9,12.4h-98.9c-6.5,0-11.9-5.5-11.9-12.4l0,0
							C288.7,125.3,294,119.7,300.5,119.7z"/>
						<text transform="matrix(0.9582 0 0 1 330.0284 135.6619)" class="st10 st19 st23">Expenses</text>
						<text transform="matrix(0.9582 0 0 1 330.0284 135.6619)" class="st24 st19 st23">Expenses</text>
						<text transform="matrix(0.9582 0 0 1 303.7389 188.2322)" class="st0 st19 st25">320</text>
						<text transform="matrix(0.9582 0 0 1 358.6353 188.2322)" class="st13 st14 st25">USD</text>
						<g id="Group_623_00000166636104295695321100000010633540719793855912_" transform="translate(24 -1)">
							<text transform="matrix(0.9582 0 0 1 400.9933 332.4026)" class="st21 st14 st22">$21</text>
							<text transform="matrix(0.9582 0 0 1 396.4347 332.4026)" class="st21 st14 st23">-</text>
						</g>
						<g id="Group_622_00000170982098281859786310000009246139333727053718_" transform="translate(14 -1)">
							<text transform="matrix(0.9582 0 0 1 406.4347 365.2288)" class="st21 st14 st22">$124</text>
							<text transform="matrix(0.9582 0 0 1 402.3321 365.2288)" class="st21 st14 st23">-</text>
						</g>
						<text transform="matrix(0.9582 0 0 1 420.4347 397.5316)" class="st26 st14 st22">$500</text>
						<text transform="matrix(0.9582 0 0 1 414.0538 398.0062)" class="st26 st14 st23">+</text>
						<g id="Group_621_00000003810278131383872630000006199110442392843942_" transform="translate(137 703.679)">
							<g>
								<defs>
									<rect id="SVGID_00000061436460132406799980000009762773756231211424_" x="200" y="-313.4" width="7.6" height="7.9"/>
								</defs>
								<clipPath id="SVGID_00000022549317188777247810000013489947272115283900_">
									<use xlink:href="#SVGID_00000061436460132406799980000009762773756231211424_"  style="overflow:visible;"/>
								</clipPath>
								
									<g id="Group_620_00000183236881113997963250000009893113311439350713_" style="clip-path:url(#SVGID_00000022549317188777247810000013489947272115283900_);">
									<path id="Path_523_00000089547207025873552260000016318544731404552097_" class="st0" d="M203.9-306.5c-0.1,0-0.1,0-0.2,0
										c-0.4,0-0.8-0.1-1.2-0.3c-1.1-0.5-1.7-1.7-1.6-2.9c0.1-0.6,0.3-1.2,0.7-1.7c0,0.1,0,0.2,0,0.2c0,0.3,0.2,0.5,0.5,0.5
										c0.3,0,0.5-0.2,0.5-0.5c0-0.5,0-0.9,0-1.4c0-0.3-0.2-0.5-0.5-0.5c0,0,0,0,0,0c-0.4,0-0.9,0-1.3,0c-0.3,0-0.5,0.2-0.5,0.5
										c0,0,0,0,0,0c0,0.3,0.2,0.5,0.5,0.5c0,0,0,0,0,0h0.1c-0.8,0.9-1.2,2.2-0.9,3.4c0.2,1.4,1.2,2.5,2.5,3
										c0.4,0.1,0.8,0.2,1.2,0.2l0,0c0.3,0,0.5-0.2,0.5-0.5C204.3-306.3,204.1-306.5,203.9-306.5L203.9-306.5z"/>
									<path id="Path_524_00000098207646977978519040000008433148412665587119_" class="st0" d="M207-307.2h-0.1
										c0.6-0.9,0.8-1.9,0.7-3c-0.3-1.8-1.7-3.2-3.5-3.3c-0.3,0-0.5,0.2-0.5,0.5c0,0,0,0,0,0c0,0.3,0.2,0.5,0.5,0.6c0,0,0,0,0,0
										c0.2,0,0.3,0,0.5,0.1c1.5,0.4,2.4,2,2,3.6c-0.1,0.2-0.1,0.4-0.2,0.7c-0.1,0.1-0.1,0.2-0.2,0.3v-0.3c0-0.3-0.2-0.5-0.5-0.5
										c-0.3,0-0.5,0.2-0.5,0.5c0,0,0,0,0,0c0,0.5,0,0.9,0,1.4c0,0.3,0.2,0.5,0.5,0.5c0,0,0,0,0,0h0.6h0.7c0.3,0,0.5-0.2,0.5-0.5
										C207.5-306.9,207.3-307.1,207-307.2C207-307.2,207-307.2,207-307.2"/>
								</g>
							</g>
						</g>
						
							<ellipse id="Ellipse_8_00000072994608877532446800000013303650325530810503_" class="st0" cx="426.4" cy="132.1" rx="11.9" ry="12.4"/>
						<text transform="matrix(0.9582 0 0 1 422.5792 136.8514)" class="st10 st28 st29">Σ</text>
						<text transform="matrix(0.9582 0 0 1 422.5792 136.8514)" class="st30 st28 st29">Σ</text>
					</g>
				</g>
			</g>
			
				<linearGradient id="SVGID_00000005231769743958193190000002970777386357950085_" gradientUnits="userSpaceOnUse" x1="452.5773" y1="245.4411" x2="456.8426" y2="245.4411">
				<stop  offset="0" style="stop-color:#000000;stop-opacity:0"/>
				<stop  offset="0.2019" style="stop-color:#3D3D3D;stop-opacity:0.2019"/>
				<stop  offset="0.4932" style="stop-color:#8F8F8F;stop-opacity:0.4932"/>
				<stop  offset="0.7326" style="stop-color:#CCCCCC;stop-opacity:0.7326"/>
				<stop  offset="0.9077" style="stop-color:#F1F1F1;stop-opacity:0.9077"/>
				<stop  offset="1" style="stop-color:#FFFFFF"/>
			</linearGradient>
			<path style="fill:url(#SVGID_00000005231769743958193190000002970777386357950085_);" d="M453.3,418.6V72.3
				c0-7.3-3.4-13.8-8.7-18c6.8,4,11.4,11.4,11.4,19.8v342.6c0,8.5-4.6,15.9-11.4,19.8C449.9,432.4,453.3,425.9,453.3,418.6z"/>
			
				<linearGradient id="SVGID_00000148622665052363799110000003862725413209155518_" gradientUnits="userSpaceOnUse" x1="8339.2051" y1="245.4411" x2="8343.4707" y2="245.4411" gradientTransform="matrix(-1 0 0 1 8612.0244 0)">
				<stop  offset="0" style="stop-color:#000000;stop-opacity:0"/>
				<stop  offset="0.2019" style="stop-color:#3D3D3D;stop-opacity:0.2019"/>
				<stop  offset="0.4932" style="stop-color:#8F8F8F;stop-opacity:0.4932"/>
				<stop  offset="0.7326" style="stop-color:#CCCCCC;stop-opacity:0.7326"/>
				<stop  offset="0.9077" style="stop-color:#F1F1F1;stop-opacity:0.9077"/>
				<stop  offset="1" style="stop-color:#FFFFFF"/>
			</linearGradient>
			<path style="fill:url(#SVGID_00000148622665052363799110000003862725413209155518_);" d="M272.1,418.6V72.3
				c0-7.3,3.4-13.8,8.7-18c-6.8,4-11.4,11.4-11.4,19.8v342.6c0,8.5,4.6,15.9,11.4,19.8C275.5,432.4,272.1,425.9,272.1,418.6z"/>
			<path d="M311.2,55.5c1.2,0.8,3.2,2.6,3.6,5.7c0.5,4.5,2.2,9.9,9.6,9.9h31.9c7.3,0,12.9,0,12.9,0h31.9c7.3,0,9.1-5.5,9.6-9.9
				c0.3-3.1,2.4-4.9,3.6-5.7H311.2z"/>
			
				<linearGradient id="SVGID_00000044864702538975064720000018189118721272791230_" gradientUnits="userSpaceOnUse" x1="362.6985" y1="63.3956" x2="362.6985" y2="60.323">
				<stop  offset="0" style="stop-color:#4D4D4D"/>
				<stop  offset="6.929898e-02" style="stop-color:#434343"/>
				<stop  offset="0.3091" style="stop-color:#262626"/>
				<stop  offset="0.5466" style="stop-color:#111111"/>
				<stop  offset="0.779" style="stop-color:#040404"/>
				<stop  offset="1" style="stop-color:#000000"/>
			</linearGradient>
			<path style="fill:url(#SVGID_00000044864702538975064720000018189118721272791230_);" d="M373.8,63.3h-22.2
				c-0.6,0-1.1-0.5-1.1-1.1v-0.6c0-0.6,0.5-1.1,1.1-1.1h22.2c0.6,0,1.1,0.5,1.1,1.1v0.6C374.9,62.8,374.4,63.3,373.8,63.3z"/>
			<g>
				<circle cx="383.9" cy="62.2" r="2.6"/>
				
					<linearGradient id="SVGID_00000151533472294864525380000008427634877064664238_" gradientUnits="userSpaceOnUse" x1="386.8316" y1="65.1719" x2="381.2852" y2="59.6254">
					<stop  offset="0" style="stop-color:#4D4D4D"/>
					<stop  offset="1" style="stop-color:#000000"/>
				</linearGradient>
				<circle style="fill:url(#SVGID_00000151533472294864525380000008427634877064664238_);" cx="383.9" cy="62.2" r="3.7"/>
				
					<linearGradient id="SVGID_00000024713602832799763280000017065378691848091293_" gradientUnits="userSpaceOnUse" x1="386.2995" y1="64.6397" x2="381.7623" y2="60.1025">
					<stop  offset="0" style="stop-color:#000000"/>
					<stop  offset="1" style="stop-color:#4D4D4D"/>
				</linearGradient>
				<circle style="fill:url(#SVGID_00000024713602832799763280000017065378691848091293_);" cx="383.9" cy="62.2" r="3"/>
				
					<linearGradient id="SVGID_00000057137117780761784150000016291288791783807403_" gradientUnits="userSpaceOnUse" x1="382.0002" y1="60.3405" x2="386.1499" y2="64.4902">
					<stop  offset="0" style="stop-color:#0058EE"/>
					<stop  offset="0.6936" style="stop-color:#000000;stop-opacity:0"/>
				</linearGradient>
				<circle style="fill:url(#SVGID_00000057137117780761784150000016291288791783807403_);" cx="383.9" cy="62.2" r="2.6"/>
				
					<radialGradient id="SVGID_00000020363135561818771050000011831813342758890147_" cx="384.123" cy="64.838" r="2.5942" gradientUnits="userSpaceOnUse">
					<stop  offset="0" style="stop-color:#0058EE"/>
					<stop  offset="0.8599" style="stop-color:#000000;stop-opacity:0"/>
				</radialGradient>
				<circle style="fill:url(#SVGID_00000020363135561818771050000011831813342758890147_);" cx="383.9" cy="62.2" r="2.6"/>
				
					<radialGradient id="SVGID_00000067943588266245779910000007262321961617325444_" cx="386.3658" cy="61.4319" r="1.7031" gradientUnits="userSpaceOnUse">
					<stop  offset="0" style="stop-color:#0058EE"/>
					<stop  offset="0.7042" style="stop-color:#000000;stop-opacity:0"/>
				</radialGradient>
				<circle style="fill:url(#SVGID_00000067943588266245779910000007262321961617325444_);" cx="383.9" cy="62.2" r="2.6"/>
				
					<radialGradient id="SVGID_00000102503587600383010450000004483048698969361315_" cx="382.312" cy="63.1229" r="2.5833" gradientUnits="userSpaceOnUse">
					<stop  offset="0" style="stop-color:#FFFFFF"/>
					<stop  offset="0.1479" style="stop-color:#BDBDBD;stop-opacity:0.8332"/>
					<stop  offset="0.2947" style="stop-color:#838383;stop-opacity:0.6677"/>
					<stop  offset="0.4349" style="stop-color:#545454;stop-opacity:0.5095"/>
					<stop  offset="0.5675" style="stop-color:#303030;stop-opacity:0.36"/>
					<stop  offset="0.6906" style="stop-color:#151515;stop-opacity:0.2212"/>
					<stop  offset="0.8007" style="stop-color:#060606;stop-opacity:9.708565e-02"/>
					<stop  offset="0.8868" style="stop-color:#000000;stop-opacity:0"/>
				</radialGradient>
				
					<circle style="opacity:0.5;fill:url(#SVGID_00000102503587600383010450000004483048698969361315_);" cx="383.9" cy="62.2" r="2.6"/>
			</g>
			<g>
				<text transform="matrix(1 0 0 1 296.1263 69.8233)" class="st40 st41 st42">8:30</text>
				<g>
					<rect x="414.4" y="68.1" class="st40" width="1.2" height="1.9"/>
					<rect x="416.1" y="67.3" class="st40" width="1.2" height="2.7"/>
					<rect x="417.8" y="66.6" class="st40" width="1.2" height="3.5"/>
					<rect x="419.5" y="65.7" class="st40" width="1.2" height="4.3"/>
				</g>
				<g>
					<path class="st40" d="M423.2,67.9c0.7-0.7,1.6-1.1,2.6-1.1c1,0,1.9,0.4,2.6,1.1l0.8-0.8c-0.9-0.9-2.1-1.4-3.4-1.4
						c-1.3,0-2.5,0.5-3.4,1.4L423.2,67.9z"/>
					<path class="st40" d="M424.3,69c0.4-0.4,1-0.6,1.6-0.6c0.6,0,1.2,0.2,1.6,0.6l0.8-0.8c-0.6-0.6-1.4-1-2.4-1
						c-0.9,0-1.8,0.4-2.4,1L424.3,69z"/>
					<path class="st40" d="M425.3,70c0.1-0.1,0.3-0.2,0.5-0.2c0.2,0,0.4,0.1,0.5,0.2l0.8-0.8c-0.3-0.3-0.8-0.5-1.3-0.5
						c-0.5,0-1,0.2-1.3,0.5L425.3,70z"/>
				</g>
				<g>
					<path class="st40" d="M438.2,69.5h-7.1c-0.1,0-0.2-0.1-0.2-0.2v-2.8c0-0.1,0.1-0.2,0.2-0.2h7.1c0.1,0,0.2,0.1,0.2,0.2v2.8
						C438.4,69.4,438.3,69.5,438.2,69.5z"/>
					<path class="st40" d="M439,68.6h-0.2c-0.1,0-0.2-0.1-0.2-0.2v-1c0-0.1,0.1-0.2,0.2-0.2h0.2c0.1,0,0.2,0.1,0.2,0.2v1
						C439.2,68.5,439.1,68.6,439,68.6z"/>
				</g>
			</g>
		</g>
	</g>
	<path class="st43" d="M431.4,436.6H295.5c-11.6,0-20.9-9.4-20.9-20.9v0c0-11.6,9.4-20.9,20.9-20.9H444c4.6,0,8.4,3.8,8.4,8.4v12.5
		C452.3,427.2,443,436.6,431.4,436.6z"/>
	<g id="Group_15_00000052814161676507910200000007558911740249680818_" transform="translate(-3)">
		<path id="Union_2_00000165193054666049667550000010361160593012692909_" class="st0" d="M364.8,419.9v-3.5h-3.5
			c-0.7,0-1.2-0.6-1.2-1.3c0-0.7,0.6-1.2,1.2-1.2h3.5v-3.5c0-0.7,0.6-1.3,1.3-1.3c0.7,0,1.3,0.6,1.3,1.3v3.5h3.5
			c0.7,0,1.3,0.5,1.3,1.2c0,0.7-0.5,1.3-1.2,1.3c0,0,0,0,0,0h-3.5v3.5c0,0.7-0.6,1.3-1.3,1.3C365.4,421.2,364.8,420.6,364.8,419.9
			L364.8,419.9z"/>
		<g id="Group_625_00000181086045931366460580000004116981946741014961_" transform="translate(54 719.912)">
			<path id="Rectangle_31_00000093168630743602873570000009109212418703857055_" class="st0" d="M369-308L369-308
				c0.6,0,1.2,0.5,1.2,1.2v6c0,0.6-0.5,1.2-1.2,1.2l0,0c-0.6,0-1.2-0.5-1.2-1.2v-6C367.9-307.5,368.4-308,369-308z"/>
			<path id="Rectangle_34_00000019665714360758499040000015803688898640888998_" class="st0" d="M372.3-309.9L372.3-309.9
				c0.6,0,1.2,0.5,1.2,1.2v7.9c0,0.6-0.5,1.2-1.2,1.2l0,0c-0.6,0-1.2-0.5-1.2-1.2v-7.9C371.1-309.4,371.6-309.9,372.3-309.9z"/>
			<path id="Rectangle_35_00000098191705716800132600000007729876678990401159_" class="st0" d="M375.5-305.2L375.5-305.2
				c0.6,0,1.2,0.5,1.2,1.2v3.3c0,0.6-0.5,1.2-1.2,1.2l0,0c-0.6,0-1.2-0.5-1.2-1.2v-3.3C374.4-304.7,374.9-305.2,375.5-305.2z"/>
		</g>
		<g>
			<defs>
				<rect id="SVGID_00000049923306356728351560000008680343831891001249_" x="295.9" y="409.1" width="14.5" height="13.1"/>
			</defs>
			<clipPath id="SVGID_00000004540262817414979810000013968686254852034182_">
				<use xlink:href="#SVGID_00000049923306356728351560000008680343831891001249_"  style="overflow:visible;"/>
			</clipPath>
			
				<g id="Group_626_00000106126937875471207130000009020755529592126612_" transform="translate(46.802 796)" style="clip-path:url(#SVGID_00000004540262817414979810000013968686254852034182_);">
				<path id="Path_525_00000012446971470935479920000018017262309564065429_" class="st0" d="M263.6-380.1c0,0.3-0.1,0.7-0.1,1
					c-0.6,2.7-2.2,4.4-4.9,5.1c-2.2,0.6-4.5-0.1-6.1-1.7c-0.2-0.2-0.3-0.6-0.1-0.8c0,0,0,0,0,0c0.2-0.2,0.6-0.2,0.8,0c0,0,0,0,0,0
					c2.1,2.1,5.5,2.1,7.6,0s2.1-5.5,0-7.6s-5.5-2.1-7.6,0c-0.8,0.8-1.3,1.8-1.5,2.9c0,0,0,0.1,0,0.1l0,0c0.2-0.2,0.3-0.3,0.5-0.5
					c0.2-0.2,0.6-0.2,0.8,0c0.1,0.1,0.1,0.2,0.2,0.3c0.1,0.2,0,0.4-0.1,0.5c-0.5,0.5-1,1-1.5,1.5c-0.2,0.2-0.6,0.2-0.8,0
					c0,0,0,0,0,0c-0.5-0.5-1-1-1.5-1.5c-0.2-0.2-0.2-0.6,0-0.8c0,0,0,0,0,0c0.2-0.2,0.6-0.2,0.8,0c0,0,0,0,0,0
					c0.2,0.1,0.3,0.3,0.5,0.5c0-0.2,0.1-0.3,0.1-0.5c0.4-2.5,2.3-4.5,4.7-5.1c0.4-0.1,0.8-0.2,1.2-0.2c0,0,0.1,0,0.1,0h0.8
					c0,0,0.1,0,0.1,0c0.4,0,0.8,0.1,1.2,0.2c2.4,0.6,4.3,2.7,4.7,5.1c0.1,0.3,0.1,0.6,0.1,0.9L263.6-380.1z"/>
				<path id="Path_526_00000044171784109685754400000007627232700113660830_" class="st0" d="M256.4-381.4c0-0.7,0-1.3,0-1.9
					c0-0.3,0.3-0.6,0.6-0.6c0.2,0,0.5,0.2,0.5,0.4c0,0.1,0,0.2,0,0.3c0,1.1,0,2.3,0,3.4c0,0.1,0,0.2,0.1,0.2
					c0.4,0.4,0.8,0.8,1.2,1.2c0.2,0.2,0.2,0.4,0.1,0.7c-0.1,0.2-0.3,0.4-0.6,0.3c-0.1,0-0.3-0.1-0.4-0.2c-0.5-0.5-1-1-1.5-1.5
					c-0.1-0.1-0.2-0.3-0.2-0.4C256.4-380.1,256.4-380.8,256.4-381.4L256.4-381.4z"/>
			</g>
		</g>
	</g>
</g>
</svg>
